<?xml version="1.0" standalone="no"?>
<svg viewBox="0 0 200 200" xmlns="http://www.w3.org/2000/svg">
  <path fill="#FFD6E8" d="M30.3,-54.1C37.6,-42.4,40.7,-31.2,48.7,-20.3C56.7,-9.4,69.6,1.2,68.2,9.7C66.8,18.2,51.1,24.4,42,38C32.8,51.5,30,72.3,20.1,80.8C10.2,89.3,-6.9,85.5,-22.7,79.8C-38.6,74.1,-53.2,66.4,-65.6,55.1C-78,43.8,-88.2,29,-85.1,15.5C-81.9,2,-65.3,-10.1,-53.4,-19.5C-41.5,-28.8,-34.3,-35.4,-26.1,-46.7C-18,-58,-9,-73.9,1.3,-75.9C11.5,-77.8,23,-65.8,30.3,-54.1Z" transform="translate(100 100)" />
</svg>
