<?xml version="1.0" encoding="UTF-8" standalone="no"?><!DOCTYPE svg PUBLIC "-//W3C//DTD SVG 1.1//EN" "http://www.w3.org/Graphics/SVG/1.1/DTD/svg11.dtd"><svg width="100%" height="100%" viewBox="0 0 2500 2500" version="1.1" xmlns="http://www.w3.org/2000/svg" xmlns:xlink="http://www.w3.org/1999/xlink" xml:space="preserve" xmlns:serif="http://www.serif.com/" style="fill-rule:evenodd;clip-rule:evenodd;stroke-linejoin:round;stroke-miterlimit:2;"><g><g><g><path d="M223.001,523.89l40.422,-78.962l-208.172,-106.57l-40.423,78.962l208.173,106.57Z" style="fill:#fb6ecc;fill-opacity:0.4;"/><path d="M20.56,634.997l40.422,-78.962l-208.172,-106.569l-40.423,78.962l208.173,106.569Z" style="fill:#fb6ecc;fill-opacity:0.4;"/><path d="M20.826,162.129l-85.12,-24.971l-65.833,224.408l85.12,24.971l65.833,-224.408Z" style="fill:#fb6ecc;fill-opacity:0.4;"/><path d="M113.028,976.316l-85.12,-24.971l-65.833,224.408l85.121,24.971l65.832,-224.408Z" style="fill:#fb6ecc;fill-opacity:0.4;"/><path d="M308.219,821.068l-88.514,-5.864l-15.46,233.353l88.513,5.865l15.461,-233.354Z" style="fill:#fb6ecc;fill-opacity:0.4;"/><path d="M475.317,623.731l-30.687,-89.598l-402.505,137.856l30.687,89.598l402.505,-137.856Z" style="fill:#fb6ecc;fill-opacity:0.4;"/><path d="M37.021,-1.033l-60.988,-64.416l-83.346,78.91l60.988,64.416l83.346,-78.91Z" style="fill:#fb6ecc;fill-opacity:0.4;"/><path d="M37.713,162.647l-30.064,-100.433l-7.725,2.313l30.064,100.432l7.725,-2.312Z" style="fill:#fb6ecc;fill-opacity:0.4;"/><path d="M37.289,847.727l-8.474,-88.302l-114.25,10.964l8.474,88.302l114.25,-10.964Z" style="fill:#fb6ecc;fill-opacity:0.4;"/><path d="M459.583,755.972l-88.449,6.776l17.864,233.182l88.448,-6.776l-17.863,-233.182Z" style="fill:#fb6ecc;fill-opacity:0.4;"/><path d="M660.072,870.563l-88.448,6.776l17.863,233.182l88.448,-6.776l-17.863,-233.182Z" style="fill:#fb6ecc;fill-opacity:0.4;"/><path d="M256.703,1117.34l23.169,85.628l225.747,-61.081l-23.168,-85.629l-225.748,61.082Z" style="fill:#fb6ecc;fill-opacity:0.4;"/><path d="M223.526,1758.8l23.169,85.628l225.747,-61.081l-23.168,-85.629l-225.748,61.082Z" style="fill:#fb6ecc;fill-opacity:0.4;"/><path d="M568.979,1184.44l-49.619,73.532l193.856,130.814l49.62,-73.531l-193.857,-130.815Z" style="fill:#fb6ecc;fill-opacity:0.4;"/><path d="M464.766,1308.04l-85.497,-23.648l-62.346,225.401l85.497,23.649l62.346,-225.402Z" style="fill:#fb6ecc;fill-opacity:0.4;"/><path d="M716.542,2042.3l-85.497,-23.649l-62.346,225.401l85.497,23.649l62.346,-225.401Z" style="fill:#fb6ecc;fill-opacity:0.4;"/><path d="M291.086,1369.01l-85.497,-23.649l-62.346,225.402l85.497,23.648l62.346,-225.401Z" style="fill:#fb6ecc;fill-opacity:0.4;"/><path d="M644.991,1469.44l-85.497,-23.649l-62.346,225.401l85.497,23.649l62.346,-225.401Z" style="fill:#fb6ecc;fill-opacity:0.4;"/><path d="M-14.938,1615.16l-23.073,85.654l225.816,60.828l23.073,-85.654l-225.816,-60.828Z" style="fill:#fb6ecc;fill-opacity:0.4;"/><path d="M247.06,2120.42l-23.073,85.655l225.816,60.828l23.073,-85.655l-225.816,-60.828Z" style="fill:#fb6ecc;fill-opacity:0.4;"/><path d="M275.932,1918.94l-23.072,85.655l225.816,60.828l23.072,-85.654l-225.816,-60.829Z" style="fill:#fb6ecc;fill-opacity:0.4;"/><path d="M612.395,1823.49l-23.073,85.655l110.825,29.852l23.073,-85.654l-110.825,-29.853Z" style="fill:#fb6ecc;fill-opacity:0.4;"/><path d="M290.5,1578.53l-23.073,85.654l110.825,29.853l23.073,-85.655l-110.825,-29.852Z" style="fill:#fb6ecc;fill-opacity:0.4;"/><path d="M109.11,1188.76l-23.073,85.654l110.825,29.853l23.073,-85.654l-110.825,-29.853Z" style="fill:#fb6ecc;fill-opacity:0.4;"/><path d="M467.944,2311.18l-23.072,85.654l110.825,29.853l23.072,-85.655l-110.825,-29.852Z" style="fill:#fb6ecc;fill-opacity:0.4;"/><path d="M105.343,1845.73l-23.073,85.654l110.825,29.853l23.072,-85.654l-110.824,-29.853Z" style="fill:#fb6ecc;fill-opacity:0.4;"/><path d="M-64.813,1845.48l-68.664,56.162l209.02,255.548l68.664,-56.163l-209.02,-255.547Z" style="fill:#fb6ecc;fill-opacity:0.4;"/><path d="M862.224,1466.4l-87.338,-15.528l-57.79,325.044l87.338,15.528l57.79,-325.044Z" style="fill:#fb6ecc;fill-opacity:0.4;"/><path d="M116.752,1432.63l-87.338,-15.528l-22.011,123.804l87.338,15.528l22.011,-123.804Z" style="fill:#fb6ecc;fill-opacity:0.4;"/><path d="M248.323,1102.67l-69.938,78.097l6.008,5.38l69.938,-78.097l-6.008,-5.38Z" style="fill:#fb6ecc;fill-opacity:0.4;"/><path d="M846.413,638.495l74.361,-48.369l-127.519,-196.041l-74.36,48.369l127.518,196.041Z" style="fill:#fb6ecc;fill-opacity:0.4;"/><path d="M615.528,634.108l74.36,-48.369l-127.518,-196.04l-74.36,48.369l127.518,196.04Z" style="fill:#fb6ecc;fill-opacity:0.4;"/><path d="M851.106,224.1l-61.401,-64.023l-168.788,161.875l61.401,64.023l168.788,-161.875Z" style="fill:#fb6ecc;fill-opacity:0.4;"/><path d="M544.909,315.001l8.271,-88.321l-232.847,-21.804l-8.27,88.321l232.846,21.804Z" style="fill:#fb6ecc;fill-opacity:0.4;"/><path d="M577.069,156.562l86.364,-20.257l-53.406,-227.686l-86.363,20.258l53.405,227.685Z" style="fill:#fb6ecc;fill-opacity:0.4;"/><path d="M700.223,19.757l86.363,-20.257l-53.406,-227.686l-86.363,20.258l53.406,227.685Z" style="fill:#fb6ecc;fill-opacity:0.4;"/><path d="M341.516,101.387l86.363,-20.258l-53.405,-227.685l-86.364,20.257l53.406,227.686Z" style="fill:#fb6ecc;fill-opacity:0.4;"/><path d="M946.359,90.641l-20.838,-86.225l-111.564,26.962l20.838,86.225l111.564,-26.962Z" style="fill:#fb6ecc;fill-opacity:0.4;"/><path d="M152.356,208.241l84.083,-28.266l-105.196,-312.934l-84.084,28.266l105.197,312.934Z" style="fill:#fb6ecc;fill-opacity:0.4;"/><path d="M865.496,232.954l23.909,-102.074l-7.852,-1.839l-23.909,102.073l7.852,1.84Z" style="fill:#fb6ecc;fill-opacity:0.4;"/><path d="M869.23,1102.59l-88.687,1.903l5.016,233.811l88.687,-1.902l-5.016,-233.812Z" style="fill:#fb6ecc;fill-opacity:0.4;"/><path d="M83.645,2214.82l-40.317,79.016l208.315,106.29l40.317,-79.017l-208.315,-106.289Z" style="fill:#fb6ecc;fill-opacity:0.4;"/><path d="M564.091,656.635l-40.317,79.017l208.316,106.289l40.317,-79.016l-208.316,-106.29Z" style="fill:#fb6ecc;fill-opacity:0.4;"/></g><path d="M66.005,2690.43l79.286,39.784l104.886,-209.026l-79.286,-39.784l-104.886,209.026Z" style="fill:#fb6ecc;fill-opacity:0.4;"/><path d="M-125.585,2621.73l79.286,39.785l104.885,-209.027l-79.285,-39.784l-104.886,209.026Z" style="fill:#fb6ecc;fill-opacity:0.4;"/><path d="M115.695,322.033l79.286,39.785l51.475,-102.585l-79.285,-39.784l-51.476,102.584Z" style="fill:#fb6ecc;fill-opacity:0.4;"/><path d="M297.191,2512.29l79.285,39.784l51.475,-102.584l-79.285,-39.785l-51.475,102.585Z" style="fill:#fb6ecc;fill-opacity:0.4;"/><path d="M802.202,773.065l79.285,39.784l51.475,-102.585l-79.285,-39.784l-51.475,102.585Z" style="fill:#fb6ecc;fill-opacity:0.4;"/><path d="M732.776,890.48l-32.73,82.448l116.873,46.397l32.73,-82.449l-116.873,-46.396Z" style="fill:#fb6ecc;fill-opacity:0.4;"/></g><g><g><path d="M1649.29,1870.74l-33.554,82.116l216.489,88.462l33.554,-82.117l-216.489,-88.461Z" style="fill:#fb6ecc;fill-opacity:0.4;"/><path d="M1841.54,1742.81l-33.554,82.116l216.489,88.462l33.554,-82.117l-216.489,-88.461Z" style="fill:#fb6ecc;fill-opacity:0.4;"/><path d="M1881.52,2213.98l86.937,17.634l46.49,-229.197l-86.937,-17.635l-46.49,229.198Z" style="fill:#fb6ecc;fill-opacity:0.4;"/><path d="M1720.35,1410.6l86.937,17.634l46.49,-229.197l-86.937,-17.635l-46.49,229.198Z" style="fill:#fb6ecc;fill-opacity:0.4;"/><path d="M1539.08,1581.9l88.691,-1.692l-4.461,-233.823l-88.691,1.692l4.461,233.823Z" style="fill:#fb6ecc;fill-opacity:0.4;"/><path d="M1389.39,1792.74l38.202,86.661l389.309,-171.62l-38.203,-86.66l-389.308,171.619Z" style="fill:#fb6ecc;fill-opacity:0.4;"/><path d="M2440.2,2530.93l86.937,17.634l46.49,-229.197l-86.937,-17.635l-46.49,229.198Z" style="fill:#fb6ecc;fill-opacity:0.4;"/><path d="M2081.38,1964.83l43.522,77.297l203.783,-114.741l-43.522,-77.297l-203.783,114.741Z" style="fill:#fb6ecc;fill-opacity:0.4;"/><path d="M2145.21,2113.36l-59.435,65.852l173.609,156.692l59.436,-65.852l-173.61,-156.692Z" style="fill:#fb6ecc;fill-opacity:0.4;"/><path d="M2121.94,2295.95l-59.435,65.852l173.61,156.693l59.435,-65.852l-173.61,-156.693Z" style="fill:#fb6ecc;fill-opacity:0.4;"/><path d="M2370.24,2024.5l-59.435,65.852l173.609,156.692l59.435,-65.851l-173.609,-156.693Z" style="fill:#fb6ecc;fill-opacity:0.4;"/><path d="M2309.01,2390.31l66.251,58.991l76.326,-85.719l-66.251,-58.991l-76.326,85.719Z" style="fill:#fb6ecc;fill-opacity:0.4;"/><path d="M1879.28,2377.93l66.25,58.99l76.326,-85.719l-66.25,-58.99l-76.326,85.719Z" style="fill:#fb6ecc;fill-opacity:0.4;"/><path d="M2464.82,1828.91l-52.999,71.135l264.741,197.245l52.999,-71.135l-264.741,-197.245Z" style="fill:#fb6ecc;fill-opacity:0.4;"/><path d="M2100.75,2480.32l-52.999,71.135l100.836,75.127l52.999,-71.134l-100.836,-75.128Z" style="fill:#fb6ecc;fill-opacity:0.4;"/><path d="M1864.65,2214.9l38.505,97.509l7.501,-2.962l-38.505,-97.509l-7.501,2.962Z" style="fill:#fb6ecc;fill-opacity:0.4;"/><path d="M2107.24,385.213l-76.961,44.114l116.301,202.897l76.961,-44.114l-116.301,-202.897Z" style="fill:#fb6ecc;fill-opacity:0.4;"/><path d="M2337.51,402.567l-76.961,44.114l116.301,202.897l76.96,-44.114l-116.3,-202.897Z" style="fill:#fb6ecc;fill-opacity:0.4;"/><path d="M2079.27,798.69l57.706,67.372l177.618,-152.134l-57.706,-67.373l-177.618,152.135Z" style="fill:#fb6ecc;fill-opacity:0.4;"/><path d="M2324.87,1392.2l57.706,67.372l177.618,-152.134l-57.707,-67.373l-177.617,152.135Z" style="fill:#fb6ecc;fill-opacity:0.4;"/><path d="M2390.09,725.139l-13.221,87.717l231.254,34.853l13.22,-87.716l-231.253,-34.854Z" style="fill:#fb6ecc;fill-opacity:0.4;"/><path d="M2349.08,881.52l-87.365,15.372l40.526,230.327l87.366,-15.372l-40.527,-230.327Z" style="fill:#fb6ecc;fill-opacity:0.4;"/><path d="M2218.43,1011.19l-87.366,15.372l40.527,230.327l87.365,-15.372l-40.526,-230.327Z" style="fill:#fb6ecc;fill-opacity:0.4;"/><path d="M2581.16,949.845l-87.365,15.372l40.526,230.327l87.365,-15.372l-40.526,-230.327Z" style="fill:#fb6ecc;fill-opacity:0.4;"/><path d="M2047.82,1364.93l15.96,87.26l230.049,-42.076l-15.96,-87.259l-230.049,42.075Z" style="fill:#fb6ecc;fill-opacity:0.4;"/><path d="M2440.98,1514.3l15.959,87.26l230.049,-42.076l-15.959,-87.26l-230.049,42.076Z" style="fill:#fb6ecc;fill-opacity:0.4;"/><path d="M2307.9,1200.64l15.96,87.26l112.902,-20.65l-15.959,-87.26l-112.903,20.65Z" style="fill:#fb6ecc;fill-opacity:0.4;"/><path d="M1976.67,926.584l15.96,87.26l112.902,-20.649l-15.96,-87.26l-112.902,20.649Z" style="fill:#fb6ecc;fill-opacity:0.4;"/><path d="M2255.48,1521.47l15.96,87.26l112.902,-20.649l-15.959,-87.26l-112.903,20.649Z" style="fill:#fb6ecc;fill-opacity:0.4;"/><path d="M1806.76,1532.27l15.96,87.26l112.902,-20.65l-15.959,-87.26l-112.903,20.65Z" style="fill:#fb6ecc;fill-opacity:0.4;"/><path d="M2101.72,1594.34l-37.88,80.213l298.528,140.977l37.88,-80.213l-298.528,-140.977Z" style="fill:#fb6ecc;fill-opacity:0.4;"/><path d="M1922.2,1098.41l-85.54,23.496l87.445,318.351l85.539,-23.496l-87.444,-318.351Z" style="fill:#fb6ecc;fill-opacity:0.4;"/><path d="M2088.33,1143.53l-85.54,23.496l33.307,121.255l85.539,-23.496l-33.306,-121.255Z" style="fill:#fb6ecc;fill-opacity:0.4;"/><path d="M2065.4,789.041l-29.608,100.568l7.736,2.278l29.608,-100.568l-7.736,-2.278Z" style="fill:#fb6ecc;fill-opacity:0.4;"/><path d="M1393.81,1659.64l87.551,-14.281l-37.649,-230.815l-87.55,14.281l37.648,230.815Z" style="fill:#fb6ecc;fill-opacity:0.4;"/><path d="M1184.29,1562.53l87.55,-14.28l-37.648,-230.815l-87.551,14.28l37.649,230.815Z" style="fill:#fb6ecc;fill-opacity:0.4;"/><path d="M1565.19,1282.32l-30.374,-83.345l-219.729,80.077l30.374,83.345l219.729,-80.077Z" style="fill:#fb6ecc;fill-opacity:0.4;"/><path d="M1543.64,640.363l-30.374,-83.345l-219.729,80.077l30.374,83.345l219.729,-80.077Z" style="fill:#fb6ecc;fill-opacity:0.4;"/><path d="M1248.33,1242.04l43.18,-77.489l-204.289,-113.838l-43.179,77.489l204.288,113.838Z" style="fill:#fb6ecc;fill-opacity:0.4;"/><path d="M1341.65,1110.02l87.2,16.285l42.932,-229.89l-87.2,-16.285l-42.932,229.89Z" style="fill:#fb6ecc;fill-opacity:0.4;"/><path d="M1028.28,399.857l87.2,16.284l42.932,-229.89l-87.2,-16.285l-42.932,229.891Z" style="fill:#fb6ecc;fill-opacity:0.4;"/><path d="M1509.51,1034.49l87.2,16.285l42.932,-229.89l-87.2,-16.285l-42.932,229.89Z" style="fill:#fb6ecc;fill-opacity:0.4;"/><path d="M1148.34,964.552l87.199,16.285l42.933,-229.891l-87.2,-16.284l-42.932,229.89Z" style="fill:#fb6ecc;fill-opacity:0.4;"/><path d="M1793.47,763.181l15.697,-87.308l-230.174,-41.384l-15.698,87.308l230.175,41.384Z" style="fill:#fb6ecc;fill-opacity:0.4;"/><path d="M1489.41,282.059l15.698,-87.308l-230.175,-41.384l-15.697,87.308l230.174,41.384Z" style="fill:#fb6ecc;fill-opacity:0.4;"/><path d="M1477.79,485.261l15.697,-87.307l-230.174,-41.385l-15.698,87.308l230.175,41.384Z" style="fill:#fb6ecc;fill-opacity:0.4;"/><path d="M1150.67,609.008l15.698,-87.308l-112.964,-20.31l-15.698,87.308l112.964,20.31Z" style="fill:#fb6ecc;fill-opacity:0.4;"/><path d="M1492.25,825.68l15.698,-87.307l-112.964,-20.31l-15.697,87.307l112.963,20.31Z" style="fill:#fb6ecc;fill-opacity:0.4;"/><path d="M1706.17,1198.6l15.698,-87.308l-112.964,-20.31l-15.697,87.307l112.963,20.311Z" style="fill:#fb6ecc;fill-opacity:0.4;"/><path d="M1253.09,110.797l15.697,-87.307l-112.964,-20.311l-15.697,87.308l112.964,20.31Z" style="fill:#fb6ecc;fill-opacity:0.4;"/><path d="M1653.99,543.689l15.697,-87.308l-112.963,-20.31l-15.698,87.308l112.964,20.31Z" style="fill:#fb6ecc;fill-opacity:0.4;"/><path d="M2077.94,691.141l15.698,-87.308l-112.964,-20.31l-15.697,87.307l112.963,20.311Z" style="fill:#fb6ecc;fill-opacity:0.4;"/><path d="M1823.55,529.446l63.634,-61.804l-230.015,-236.827l-63.634,61.804l230.015,236.827Z" style="fill:#fb6ecc;fill-opacity:0.4;"/><path d="M932.15,986.064l88.343,8.037l29.91,-328.784l-88.342,-8.037l-29.911,328.784Z" style="fill:#fb6ecc;fill-opacity:0.4;"/><path d="M1817.5,1056.84l88.343,8.036l29.911,-328.784l-88.343,-8.037l-29.911,328.785Z" style="fill:#fb6ecc;fill-opacity:0.4;"/><path d="M1677.79,956.253l88.343,8.037l11.392,-125.229l-88.342,-8.036l-11.393,125.228Z" style="fill:#fb6ecc;fill-opacity:0.4;"/><path d="M1574.79,1296.22l63.036,-83.767l-6.444,-4.849l-63.036,83.767l6.444,4.849Z" style="fill:#fb6ecc;fill-opacity:0.4;"/><path d="M1018.38,1809.62l-69.972,54.524l143.744,184.474l69.972,-54.524l-143.744,-184.474Z" style="fill:#fb6ecc;fill-opacity:0.4;"/><path d="M1248.8,1794.34l-69.973,54.524l143.744,184.473l69.973,-54.523l-143.744,-184.474Z" style="fill:#fb6ecc;fill-opacity:0.4;"/><path d="M892.636,1926.21l-69.972,54.523l143.744,184.474l69.973,-54.524l-143.745,-184.473Z" style="fill:#fb6ecc;fill-opacity:0.4;"/><path d="M842.606,2193.81l-88.407,-7.296l-19.235,233.072l88.407,7.297l19.235,-233.073Z" style="fill:#fb6ecc;fill-opacity:0.4;"/><path d="M669.574,2534.98l-29.024,-83.825l-220.993,76.517l29.023,83.825l220.994,-76.517Z" style="fill:#fb6ecc;fill-opacity:0.4;"/><path d="M1048.98,2222.91l66.628,58.563l154.395,-175.655l-66.628,-58.564l-154.395,175.656Z" style="fill:#fb6ecc;fill-opacity:0.4;"/><path d="M1346.33,2106.28l-0.722,88.705l233.858,1.902l0.721,-88.705l-233.857,-1.902Z" style="fill:#fb6ecc;fill-opacity:0.4;"/><path d="M1327.77,2266.88l-84.325,27.536l72.594,222.313l84.325,-27.536l-72.594,-222.313Z" style="fill:#fb6ecc;fill-opacity:0.4;"/><path d="M1216.71,2413.67l-84.326,27.536l72.594,222.312l84.326,-27.535l-72.594,-222.313Z" style="fill:#fb6ecc;fill-opacity:0.4;"/><path d="M1567.17,2301.8l-84.326,27.536l72.594,222.313l84.326,-27.536l-72.594,-222.313Z" style="fill:#fb6ecc;fill-opacity:0.4;"/><path d="M965.436,2364l28.102,84.139l108.864,-36.361l-28.103,-84.139l-108.863,36.361Z" style="fill:#fb6ecc;fill-opacity:0.4;"/><path d="M1746.55,2179.23l-81.372,35.321l131.454,302.842l81.372,-35.321l-131.454,-302.842Z" style="fill:#fb6ecc;fill-opacity:0.4;"/><path d="M1033.89,2215.32l-15.133,103.738l7.979,1.164l15.134,-103.738l-7.98,-1.164Z" style="fill:#fb6ecc;fill-opacity:0.4;"/><path d="M956.14,1349.15l88.203,-9.446l-24.901,-232.535l-88.203,9.445l24.901,232.536Z" style="fill:#fb6ecc;fill-opacity:0.4;"/><path d="M2513.4,127.431l-67.254,-57.845l-152.499,177.304l67.253,57.845l152.5,-177.304Z" style="fill:#fb6ecc;fill-opacity:0.4;"/><path d="M2402.78,9.534l33.444,-82.162l-216.608,-88.17l-33.444,82.161l216.608,88.171Z" style="fill:#fb6ecc;fill-opacity:0.4;"/><path d="M1644.19,174.091l33.444,-82.162l-216.608,-88.17l-33.444,82.161l216.608,88.171Z" style="fill:#fb6ecc;fill-opacity:0.4;"/><path d="M1298.13,1767.52l33.444,-82.161l-216.608,-88.171l-33.444,82.162l216.608,88.17Z" style="fill:#fb6ecc;fill-opacity:0.4;"/></g><path d="M2221.49,169.738l33.444,-82.162l-216.607,-88.17l-33.444,82.161l216.607,88.171Z" style="fill:#fb6ecc;fill-opacity:0.4;"/><path d="M1873.64,96.133l-82.384,-32.891l-42.556,106.595l82.385,32.89l42.555,-106.594Z" style="fill:#fb6ecc;fill-opacity:0.4;"/><path d="M1773.39,2062.73l-82.384,-32.89l-42.556,106.594l82.385,32.89l42.555,-106.594Z" style="fill:#fb6ecc;fill-opacity:0.4;"/><path d="M1406.1,-104.126l-82.384,-32.891l-42.556,106.595l82.385,32.89l42.555,-106.594Z" style="fill:#fb6ecc;fill-opacity:0.4;"/><path d="M1050.98,1671.78l-82.385,-32.89l-42.555,106.594l82.385,32.89l42.555,-106.594Z" style="fill:#fb6ecc;fill-opacity:0.4;"/><path d="M2199.21,385.846l25.593,-84.936l-316.103,-95.249l-25.593,84.935l316.103,95.25Z" style="fill:#fb6ecc;fill-opacity:0.4;"/><path d="M1110.15,1548.88l25.593,-84.935l-120.398,-36.279l-25.593,84.935l120.398,36.279Z" style="fill:#fb6ecc;fill-opacity:0.4;"/></g></g></svg>